<?xml version="1.0" encoding="utf-8"?>
<!-- Generator: Adobe Illustrator 16.0.0, SVG Export Plug-In . SVG Version: 6.00 Build 0)  -->
<!DOCTYPE svg PUBLIC "-//W3C//DTD SVG 1.1//EN" "http://www.w3.org/Graphics/SVG/1.1/DTD/svg11.dtd">
<svg version="1.1" id="Layer_1" xmlns="http://www.w3.org/2000/svg" xmlns:xlink="http://www.w3.org/1999/xlink" x="0px" y="0px"
	 width="800px" height="800px" viewBox="0 0 800 800" enable-background="new 0 0 800 800" xml:space="preserve">
<g>
	<g>
		<g>
			<defs>
				<path id="SVGID_1_" d="M110.977,400.005c0-159.625,129.394-289.027,289.021-289.027c159.625,0,289.026,129.402,289.026,289.027
					c0,159.608-129.401,289.019-289.026,289.019C240.371,689.023,110.977,559.613,110.977,400.005 M50,400.005
					C50,593.297,206.696,750,399.997,750C593.302,750,750,593.297,750,400.005C750,206.701,593.302,50,399.997,50
					C206.696,50,50,206.701,50,400.005"/>
			</defs>
			<clipPath id="SVGID_2_">
				<use xlink:href="#SVGID_1_"  overflow="visible"/>
			</clipPath>
			
				<linearGradient id="SVGID_3_" gradientUnits="userSpaceOnUse" x1="-20.5244" y1="698.458" x2="-16.5107" y2="698.458" gradientTransform="matrix(174.4092 0 0 -174.4092 3629.6602 122217.3906)">
				<stop  offset="0" style="stop-color:#50BDEC"/>
				<stop  offset="0.05" style="stop-color:#50BDEC"/>
				<stop  offset="0.2056" style="stop-color:#36A6DD"/>
				<stop  offset="0.3879" style="stop-color:#1E90CE"/>
				<stop  offset="0.5" style="stop-color:#1588C9"/>
				<stop  offset="0.6437" style="stop-color:#0A76BB"/>
				<stop  offset="0.7994" style="stop-color:#0269B1"/>
				<stop  offset="0.95" style="stop-color:#0065AE"/>
				<stop  offset="1" style="stop-color:#0065AE"/>
			</linearGradient>
			<rect x="50" y="50" clip-path="url(#SVGID_2_)" fill="url(#SVGID_3_)" width="700" height="700"/>
		</g>
		<g>
			<defs>
				<path id="SVGID_4_" d="M140.606,437.6c85.216,12.115,172.309,18.382,260.854,18.382c88.556,0,175.659-6.267,260.868-18.382
					c-85.209-12.1-172.313-18.371-260.868-18.371C312.915,419.229,225.822,425.5,140.606,437.6"/>
			</defs>
			<clipPath id="SVGID_5_">
				<use xlink:href="#SVGID_4_"  overflow="visible"/>
			</clipPath>
			
				<linearGradient id="SVGID_6_" gradientUnits="userSpaceOnUse" x1="-20.5181" y1="698.4014" x2="-16.5044" y2="698.4014" gradientTransform="matrix(129.9897 0 0 -129.9897 2807.7803 91222.5234)">
				<stop  offset="0" style="stop-color:#50BDEC"/>
				<stop  offset="0.05" style="stop-color:#50BDEC"/>
				<stop  offset="0.2056" style="stop-color:#36A6DD"/>
				<stop  offset="0.3879" style="stop-color:#1E90CE"/>
				<stop  offset="0.5" style="stop-color:#1588C9"/>
				<stop  offset="0.6437" style="stop-color:#0A76BB"/>
				<stop  offset="0.7994" style="stop-color:#0269B1"/>
				<stop  offset="0.95" style="stop-color:#0065AE"/>
				<stop  offset="1" style="stop-color:#0065AE"/>
			</linearGradient>
			<rect x="140.606" y="419.229" clip-path="url(#SVGID_5_)" fill="url(#SVGID_6_)" width="521.722" height="36.753"/>
		</g>
		<polygon fill="#FFFFFF" points="154.736,628.256 150.476,623.396 161.011,614.146 160.929,614.053 143.338,615.26 
			138.635,609.914 154.697,608.936 161.776,587.268 166.479,592.629 161.078,608.449 167.937,608.072 174.769,602.084 
			179.041,606.936 		"/>
		<path fill="#FFFFFF" d="M146.536,594.143c-8.606,6.053-17.01,4.75-21.921-2.25c-4.926-7.008-3.272-15.363,5.295-21.398
			c8.576-6.029,17.226-4.9,22.142,2.107C156.97,579.609,155.112,588.115,146.536,594.143 M133.712,575.887
			c-5.691,3.998-7.337,8.889-4.563,12.809c2.759,3.934,7.917,4.053,13.601,0.055c5.636-3.975,7.494-9.008,4.73-12.934
			C144.718,571.889,139.352,571.92,133.712,575.887"/>
		<path fill="#FFFFFF" d="M130.412,538.283l-7.534,11.713l2.156,3.941l10.732-5.879l3.1,5.676l-28.35,15.529l-5.416-9.885
			c-3.254-5.949-3.763-11.791,2.751-15.365c4.253-2.32,8.074-1.623,11.116,0.941l7.991-12.981L130.412,538.283z M120.55,556.393
			l-2.014-3.686c-1.983-3.637-4.609-4.789-7.632-3.135c-3.068,1.678-3.01,4.248-1.031,7.885l2.019,3.67L120.55,556.393z"/>
		<polygon fill="#FFFFFF" points="94.18,537.806 86.472,519.533 91.417,517.449 96.606,529.756 103.489,526.863 99.08,516.398 
			104.073,514.289 108.49,524.754 116.451,521.398 111.073,508.631 116.055,506.529 123.96,525.24 		"/>
		<path fill="#FFFFFF" d="M100.279,484.895l3.065,10.033l8.591-0.251l1.921,6.263l-33.935-0.469l-2.215-7.26l27.872-19.377
			l1.975,6.467L100.279,484.895z M95.881,487.701l-3.104,1.951c-2.914,1.943-6.216,3.865-9.275,5.809l0.057,0.156
			c3.623-0.234,7.411-0.384,10.903-0.445l3.677-0.119L95.881,487.701z"/>
		<path fill="#FFFFFF" d="M91.053,440.872l1.559,10.362l8.553,1.004l0.976,6.467l-33.5-5.378l-1.141-7.517l30.392-15.121
			l1.026,6.693L91.053,440.872z M86.292,443.004l-3.351,1.482c-3.175,1.496-6.718,2.916-10.022,4.389l0.027,0.181
			c3.614,0.29,7.386,0.675,10.865,1.129l3.637,0.415L86.292,443.004z"/>
		<path fill="#FFFFFF" d="M65.087,425.43l-0.399-8.857c-0.435-9.861,4.41-16.195,15.312-16.682
			c10.873-0.471,16.552,5.394,16.963,14.909l0.412,9.204L65.087,425.43z M91.805,415.771c-0.255-6.02-3.659-9.641-11.514-9.28
			c-7.894,0.345-10.692,4.226-10.422,10.253l0.084,1.999l21.945-0.964L91.805,415.771z"/>
		<path fill="#FFFFFF" d="M64.012,393.275l0.38-6.766l15.938-3.378c3.631-0.808,6.904-1.278,10.573-2.117l0.016-0.22
			c-3.561-1.207-6.748-2.132-10.268-3.331l-15.46-5.087l0.373-6.538l31.705,11.735l-0.439,7.674L64.012,393.275z"/>
		<path fill="#FFFFFF" d="M92.612,346.399l-1.583,10.354l7.854,3.496l-0.987,6.475L67.514,351.62l1.143-7.502l33.511-5.409
			l-1.02,6.694L92.612,346.399z M87.429,347.019l-3.641,0.423c-3.471,0.486-7.277,0.792-10.869,1.215l-0.028,0.173
			c3.367,1.349,6.848,2.854,10.034,4.312l3.355,1.474L87.429,347.019z"/>
		<path fill="#FFFFFF" d="M72.405,323.871l1.711-6.365l19.045-4.621l7.588-1.317l0.055-0.215c-3.339-0.534-7.6-1.169-11.135-2.113
			l-12.446-3.327l1.578-5.91l31.207,8.348l-1.677,6.334l-19.131,4.555l-7.557,1.355l-0.053,0.22c3.451,0.619,7.51,1.191,11.09,2.155
			l12.531,3.363l-1.587,5.895L72.405,323.871z"/>
		<path fill="#FFFFFF" d="M97.763,294.373c-9.94-3.872-13.283-12.519-10.312-20.13c1.479-3.821,4.495-6.165,7.286-7.329l2.594,4.656
			c-2.045,0.952-3.786,2.281-4.671,4.566c-1.77,4.554,0.819,9.488,7.274,12.021c6.569,2.536,11.711,0.972,13.569-3.798
			c0.988-2.56,0.56-5.063-0.564-7.376l4.986-1.721c1.92,3.605,2.218,7.42,0.697,11.335
			C115.675,294.201,107.805,298.273,97.763,294.373"/>
		<polygon fill="#FFFFFF" points="96.164,255.415 105.15,237.73 109.94,240.16 103.893,252.091 110.548,255.47 115.69,245.338 
			120.52,247.788 115.377,257.923 123.09,261.831 129.361,249.489 134.19,251.942 124.991,270.05 		"/>
		<path fill="#FFFFFF" d="M111.214,227.046l4.813-7.454c5.347-8.302,12.943-10.668,22.126-4.758
			c9.144,5.895,10.387,13.964,5.225,21.96l-4.993,7.748L111.214,227.046z M138.611,234.611c3.257-5.072,2.576-9.979-4.029-14.235
			c-6.655-4.272-11.178-2.721-14.443,2.335l-1.086,1.697l18.469,11.884L138.611,234.611z"/>
		<polygon fill="#FFFFFF" points="140.869,185.281 145.024,180.344 169.763,201.163 165.593,206.102 		"/>
		<path fill="#FFFFFF" d="M153.442,170.6l4.657-4.672l18.817,5.495l7.224,2.649l0.157-0.142c-2.634-2.14-5.997-4.816-8.592-7.399
			l-9.132-9.108l4.323-4.319l22.89,22.804l-4.633,4.647l-18.84-5.593l-7.232-2.575l-0.152,0.145
			c2.688,2.247,5.902,4.778,8.532,7.396l9.184,9.164l-4.312,4.318L153.442,170.6z"/>
		<path fill="#FFFFFF" d="M196.925,167.577l0.078-5.788c3.144,0.196,6.42-0.611,8.631-2.398c2.606-2.125,3.088-4.375,1.654-6.134
			c-1.521-1.862-3.504-1.2-6.515-0.334l-4.515,1.297c-3.397,1.023-7.587,1.056-10.57-2.605c-3.32-4.1-2.301-10.167,2.79-14.302
			c2.913-2.371,6.77-3.586,10.477-3.163l0.016,5.221c-2.661-0.035-4.931,0.564-6.993,2.241c-2.203,1.787-2.826,3.932-1.482,5.589
			c1.47,1.796,3.779,0.98,6.601,0.095l4.417-1.273c4.072-1.234,7.639-0.918,10.586,2.704c3.331,4.107,2.743,10.379-3.049,15.078
			C205.705,166.539,201.268,167.942,196.925,167.577"/>
		<polygon fill="#FFFFFF" points="215.315,124.868 207.735,129.881 204.78,125.394 225.4,111.77 228.359,116.254 220.713,121.302 
			235.556,143.779 230.17,147.342 		"/>
		<polygon fill="#FFFFFF" points="234.161,106.859 239.805,103.719 255.521,131.963 249.869,135.099 		"/>
		<polygon fill="#FFFFFF" points="259.073,99.953 250.833,103.751 248.592,98.867 271.047,88.544 273.292,93.424 264.96,97.261 
			276.208,121.744 270.341,124.449 		"/>
		<path fill="#FFFFFF" d="M286.705,101.435l-5.667-16.842l6.125-2.069l5.84,17.387c2.144,6.373,5.068,7.792,8.667,6.576
			c3.637-1.227,5.244-4.15,3.088-10.527l-5.84-17.384l5.879-1.972l5.652,16.847c3.433,10.184,0.493,15.819-7.001,18.344
			C295.994,114.29,290.123,111.612,286.705,101.435"/>
		<polygon fill="#FFFFFF" points="325.202,77.024 316.329,78.975 315.176,73.738 339.316,68.399 340.48,73.642 331.512,75.627 
			337.329,101.932 331.019,103.336 		"/>
		<polygon fill="#FFFFFF" points="349.754,66.791 369.438,64.408 370.08,69.729 356.809,71.33 357.703,78.747 368.982,77.383 
			369.634,82.765 358.353,84.123 359.396,92.714 373.138,91.044 373.788,96.43 353.634,98.855 		"/>
		<path fill="#FFFFFF" d="M394.989,78.94c0.305-10.515,6.389-16.459,14.937-16.194c8.548,0.241,14.259,6.579,13.952,17.049
			c-0.305,10.473-6.384,16.713-14.948,16.462C400.39,96.002,394.683,89.41,394.989,78.94 M417.286,79.596
			c0.212-6.939-2.716-11.17-7.525-11.313c-4.801-0.141-7.98,3.917-8.191,10.857c-0.191,6.896,2.732,11.387,7.529,11.54
			C413.896,90.82,417.094,86.489,417.286,79.596"/>
		<polygon fill="#FFFFFF" points="436.261,65.043 456.003,67.692 455.29,73.013 441.956,71.22 440.83,79.576 452.213,81.104 
			451.488,86.471 440.109,84.949 438.365,97.935 431.953,97.064 		"/>
		<path fill="#FFFFFF" d="M471.771,99.644l4.778-3.289c1.657,2.693,4.21,4.903,6.945,5.68c3.237,0.901,5.35,0.008,5.965-2.188
			c0.654-2.308-1.042-3.559-3.48-5.514l-3.668-2.937c-2.791-2.194-5.229-5.597-3.962-10.14c1.434-5.085,6.987-7.75,13.303-5.971
			c3.613,1.02,6.826,3.455,8.626,6.729l-4.248,3.032c-1.517-2.197-3.324-3.698-5.876-4.42c-2.747-0.779-4.849-0.049-5.428,2.019
			c-0.629,2.221,1.379,3.647,3.724,5.446l3.598,2.857c3.347,2.63,5.158,5.723,3.892,10.214c-1.426,5.088-6.891,8.23-14.086,6.208
			C477.682,106.204,473.994,103.397,471.771,99.644"/>
		<path fill="#FFFFFF" d="M505.569,97.182c3.908-9.916,12.569-13.22,20.169-10.226c3.821,1.502,6.149,4.531,7.302,7.333
			l-4.668,2.563c-0.94-2.046-2.272-3.794-4.542-4.688c-4.547-1.795-9.497,0.761-12.041,7.228c-2.575,6.545-1.03,11.703,3.715,13.568
			c2.56,1.012,5.077,0.588,7.385-0.518l1.705,4.986c-3.63,1.904-7.439,2.187-11.334,0.65
			C505.655,115.093,501.621,107.22,505.569,97.182"/>
		<polygon fill="#FFFFFF" points="544.031,95.669 549.843,98.507 535.655,127.533 529.85,124.704 		"/>
		<polygon fill="#FFFFFF" points="561.119,104.283 578.22,114.31 575.504,118.95 563.977,112.186 560.197,118.637 569.996,124.382 
			567.25,129.05 557.458,123.301 553.089,130.764 565.027,137.763 562.292,142.435 544.771,132.166 		"/>
		<path fill="#FFFFFF" d="M588.591,121.004l5.3,3.904l-2.635,19.424l-1.545,7.548l0.189,0.122c1.709-2.912,3.864-6.644,6.028-9.591
			l7.639-10.382l4.911,3.625l-19.144,26.024l-5.274-3.88l2.729-19.463l1.461-7.546l-0.176-0.113
			c-1.807,2.986-3.838,6.545-6.04,9.532l-7.69,10.448l-4.915-3.629L588.591,121.004z"/>
		<path fill="#FFFFFF" d="M606.801,155.36c7.204-7.846,16.478-7.818,22.494-2.296c3.022,2.775,4.111,6.443,4.182,9.462l-5.295,0.736
			c-0.114-2.25-0.733-4.358-2.531-6.021c-3.611-3.308-9.142-2.696-13.836,2.418c-4.759,5.178-5.178,10.548-1.416,13.997
			c2.031,1.857,4.527,2.366,7.08,2.179l-0.205,5.26c-4.061,0.479-7.717-0.631-10.821-3.465
			C600.452,172.112,599.515,163.31,606.801,155.36"/>
		<polygon fill="#FFFFFF" points="643.645,168.013 656.853,182.773 652.859,186.367 643.941,176.404 638.384,181.386 
			645.949,189.848 641.915,193.458 634.339,184.991 627.911,190.765 637.13,201.077 633.098,204.683 619.555,189.562 		"/>
		<path fill="#FFFFFF" d="M662.09,230.452l-5.817-8.721l-8.151,2.705l-3.642-5.448l32.641-9.313l4.213,6.326l-21.129,26.581
			l-3.767-5.637L662.09,230.452z M665.499,226.506l2.411-2.756c2.237-2.708,4.852-5.499,7.224-8.234l-0.091-0.146
			c-3.413,1.274-6.999,2.509-10.335,3.579l-3.474,1.16L665.499,226.506z"/>
		<path fill="#FFFFFF" d="M692.179,233.454l3.034,5.86l-10.943,16.262l-4.719,6.078l0.102,0.204c2.83-1.857,6.4-4.264,9.653-5.949
			l11.44-5.927l2.823,5.424l-28.69,14.871l-3.018-5.805l11.04-16.262l4.652-6.106l-0.102-0.195c-2.947,1.889-6.33,4.178-9.635,5.879
			l-11.503,5.98l-2.826-5.42L692.179,233.454z"/>
		<path fill="#FFFFFF" d="M709.149,267.918l3.168,8.27c3.527,9.229,0.941,16.778-9.262,20.671
			c-10.147,3.896-17.406,0.109-20.805-8.78l-3.3-8.606L709.149,267.918z M686.845,285.531c2.151,5.628,6.515,7.973,13.854,5.166
			c7.389-2.822,8.813-7.392,6.66-13.028l-0.718-1.874l-20.521,7.858L686.845,285.531z"/>
		<polygon fill="#FFFFFF" points="721.642,324.459 719.689,315.585 724.935,314.44 730.245,338.576 724.988,339.729 
			723.025,330.769 696.714,336.562 695.318,330.251 		"/>
		<polygon fill="#FFFFFF" points="731.868,349.018 734.235,368.716 728.904,369.351 727.31,356.08 719.902,356.974 721.241,368.245 
			715.868,368.889 714.512,357.608 705.921,358.644 707.578,372.393 702.2,373.035 699.783,352.874 		"/>
		<path fill="#FFFFFF" d="M718.722,379.023c10.652-0.258,17.058,6.46,17.265,14.611c0.091,4.101-1.802,7.432-3.922,9.572
			l-4.198-3.316c1.536-1.646,2.634-3.543,2.563-5.996c-0.109-4.884-4.383-8.45-11.332-8.286c-7.031,0.165-11.183,3.583-11.061,8.693
			c0.079,2.752,1.423,4.899,3.343,6.608l-3.927,3.496c-3.163-2.586-4.914-5.996-5.01-10.19
			C702.244,386.056,707.938,379.283,718.722,379.023"/>
		<polygon fill="#FFFFFF" points="735.27,414.533 734.733,420.978 722.069,419.927 721.045,432.108 733.717,433.166 733.173,439.57 
			700.971,436.874 701.492,430.471 715.421,431.638 716.452,419.441 702.511,418.289 703.056,411.837 		"/>
		<path fill="#FFFFFF" d="M731.229,453.179l-1.302,6.46l-18.729,5.815l-7.478,1.788l-0.042,0.211
			c3.37,0.322,7.653,0.697,11.252,1.426l12.624,2.533l-1.211,6.004l-31.674-6.381l1.29-6.428l18.799-5.738l7.45-1.85l0.063-0.212
			c-3.495-0.384-7.571-0.722-11.209-1.458l-12.716-2.555l1.204-5.989L731.229,453.179z"/>
		<path fill="#FFFFFF" d="M708.081,484.479c10.01,3.277,13.969,10.778,11.323,18.915c-2.665,8.145-10.349,11.829-20.332,8.567
			c-9.958-3.26-14.23-10.864-11.562-19.001C690.176,484.824,698.116,481.218,708.081,484.479 M701.127,505.691
			c6.608,2.162,11.491,0.556,12.997-4.007c1.486-4.577-1.506-8.771-8.093-10.935c-6.573-2.148-11.709-0.619-13.193,3.95
			C691.333,499.27,694.574,503.551,701.127,505.691"/>
		<polygon fill="#FFFFFF" points="709.711,528.008 707.073,533.91 682.521,522.912 677.163,534.866 672.217,532.656 
			680.221,514.799 		"/>
		<path fill="#FFFFFF" d="M683.972,545.785c9.124,5.252,11.476,13.42,7.2,20.828c-4.285,7.416-12.566,9.453-21.648,4.217
			c-9.069-5.236-11.69-13.561-7.414-20.977C666.389,542.447,674.902,540.541,683.972,545.785 M672.821,565.117
			c6.008,3.463,11.146,2.883,13.53-1.271c2.41-4.17,0.344-8.873-5.669-12.346c-5.977-3.449-11.322-3.018-13.733,1.16
			C664.551,556.807,666.854,561.668,672.821,565.117"/>
		<path fill="#FFFFFF" d="M664.335,578.113c8.557,6.355,9.45,15.613,4.326,22.52c-2.782,3.756-6.316,5.143-9.28,5.566l-1.246-5.221
			c2.163-0.354,4.201-1.121,5.949-3.473c3.195-4.303,2.058-9.822-3.499-13.961c-5.652-4.193-10.986-4.123-14.75,0.965
			c-0.944,1.254-1.524,2.773-1.446,3.99l5.123,3.793l3.406-4.586l4.252,3.145l-6.843,9.225l-11.72-8.693
			c-0.419-3.033,0.451-7.117,3.123-10.723C646.983,573.574,655.674,571.701,664.335,578.113"/>
		<path fill="#FFFFFF" d="M634.842,608.66l21.671,6.639l-4.633,5.072l-7.978-2.916c-2.39-0.939-4.659-1.826-7.177-2.758
			l-0.112,0.125c1.152,2.43,2.179,4.656,3.343,6.959l3.63,7.684l-4.532,4.961l-8.571-20.992l-8.748-7.979l4.365-4.768
			L634.842,608.66z"/>
		<path fill="#FFFFFF" d="M232.051,688.584l18.987,10.488l-2.227,4.029l-24.054-13.287l5.664-10.236l5.064,2.791L232.051,688.584z
			 M236.849,680.619c-5.06-2.797-7.145-7.539-4.899-11.609c2.203-3.996,7.361-4.789,12.417-2.006
			c5.064,2.799,7.118,7.596,4.927,11.578C247.048,682.635,241.917,683.418,236.849,680.619 M255.459,671.48l-20.789-11.484
			l2.179-3.949l7.831,4.326l2.07-3.764l5.099,2.822l-2.065,3.756l7.897,4.357L255.459,671.48z M238.966,676.787
			c2.227,1.23,4.405,1.082,5.491-0.877c1.042-1.906,0.02-3.834-2.202-5.072c-2.261-1.246-4.401-1.082-5.468,0.838
			C235.705,673.635,236.701,675.541,238.966,676.787 M265.445,681.051l-2.312,4.172l-4.672-2.588l-6.333,11.484l-5.072-2.799
			l14.592-26.434l5.076,2.807l-5.958,10.771L265.445,681.051z"/>
		<path fill="#FFFFFF" d="M296.668,701.707l-1.881,5.369l10.582,3.715l-4.766,13.594l-5.502-1.93l3.261-9.305l-21.537-7.557
			l1.504-4.279l10.995,3.842l1.885-5.379l-14.467-5.063l1.514-4.336l24.238,8.482c1.917-3.223,3.002-5.957,3.896-8.475l-20.8-7.281
			l1.532-4.398l26.171,9.18l-1.07,3.064c-0.995,2.854-2.109,6.029-4.269,9.822l4.794,1.682l-1.521,4.338L296.668,701.707z"/>
		<path fill="#FFFFFF" d="M338.435,720.049c3.857,0.525,7.788,0.949,11.488,1.137l-0.404,4.162
			c-8.313-0.008-17.237-1.371-24.155-2.523l0.282-4.75c2.207,0.375,4.629,0.791,7.137,1.182l2.03-11.74l5.609,0.963L338.435,720.049
			z M342.389,715.619c1.885-5.502,2.748-9.742,3.359-13.287l-14.838-2.561l0.776-4.539l20.467,3.525l-0.561,3.246
			c-0.662,3.842-1.505,8.678-3.716,15.043L342.389,715.619z M363.715,718.051l-5.346-0.926l-3.281,19.01l-5.71-0.988l6.863-39.775
			l5.706,0.99l-2.77,16.021l5.353,0.924L363.715,718.051z"/>
		<path fill="#FFFFFF" d="M403.917,706.559l-23.74-0.047v-4.563l8.94,0.023v-3.77l5.84,0.016l-0.012,3.762l8.995,0.023
			L403.917,706.559z M392.021,722.66c-5.789-0.018-9.901-3.051-9.893-7.471c0.015-4.383,4.139-7.393,9.924-7.385
			c5.82,0.008,9.893,3.041,9.89,7.424C401.926,719.648,397.846,722.666,392.021,722.66 M385.005,725.355l26.904,0.055l-0.023,13.453
			l-5.785-0.018l0.016-8.811l-21.118-0.031L385.005,725.355z M392.029,718.277c2.579,0,4.39-1.004,4.39-3.064
			c0.004-2.016-1.791-3.025-4.39-3.035c-2.614,0-4.375,0.996-4.382,3.027C387.647,717.25,389.403,718.262,392.029,718.277
			 M417.271,713.629h-5.35l-0.012,10.113l-5.773-0.01l0.031-25.279l5.789,0.016l-0.02,10.379l5.35,0.008L417.271,713.629z"/>
		<path fill="#FFFFFF" d="M452.593,697.779c2.073,12.182-0.349,22.818-13.314,32.061l-3.747-3.998
			c9.337-6.609,12.684-13.57,11.998-22.537l-13.268,2.258l-0.769-4.529L452.593,697.779z M463.729,691.617l6.765,39.799
			l-5.738,0.971l-6.784-39.789L463.729,691.617z"/>
		<path fill="#FFFFFF" d="M515.595,690.223c-6.816,1.615-12.389,0.775-16.015-1.865c-1.185,4.33-5.067,8.473-11.402,11.49
			l-3.209-3.482c8.27-3.83,11.061-9.121,9.764-12.805l-0.236-0.707l5.617-1.967l0.25,0.713c1.29,3.67,6.772,6.068,15.624,3.896
			L515.595,690.223z M506.651,699.957l0.869,2.439l10.332-3.639l3.465,9.902l-20.832,7.305l0.745,2.148l21.831-7.66l1.438,4.1
			l-27.257,9.549l-3.507-10.01l20.879-7.314l-0.718-2.076l-20.93,7.344l-1.419-4.061l10.508-3.676l-0.85-2.438l-14.432,5.055
			l-1.526-4.295l34.413-12.063l1.51,4.303L506.651,699.957z"/>
		<path fill="#FFFFFF" d="M532.612,676.693c-2.062-3.754,0.196-8.34,5.39-11.172c5.143-2.813,10.215-2.24,12.261,1.529
			c2.066,3.771-0.191,8.301-5.354,11.123C539.719,681.012,534.674,680.471,532.612,676.693 M573.466,684.547l2.203,4.037
			l-26.273,14.352L543.65,692.4l4.92-2.688l-2.588-4.734c-3.033,1.85-5.965,3.504-8.627,4.961l-2.857-3.691
			c6.432-3.559,15.008-8.332,21.949-13.373l2.324,3.418c-2.496,2.006-5.178,3.871-7.913,5.619l3.649,6.703l-4.884,2.656l2.645,4.854
			L573.466,684.547z M537.426,674.066c0.945,1.74,3.085,1.717,5.469,0.416c2.343-1.277,3.512-3.072,2.574-4.807
			c-0.956-1.723-3.107-1.746-5.451-0.469C537.619,670.516,536.485,672.342,537.426,674.066 M562.049,677.555l-11.241-20.584
			l5.072-2.768l14.678,26.84l-5.08,2.779l-1.536-2.811l-6.659,3.629l-1.886-3.465L562.049,677.555z"/>
		<path fill="#FFFFFF" d="M605.695,645.291c0,3.275-2.637,5.918-5.922,5.918c-3.261,0-5.918-2.643-5.918-5.918
			c0-3.277,2.657-5.934,5.918-5.934C603.059,639.357,605.695,642.014,605.695,645.291"/>
		<path fill="#FFFFFF" d="M201.049,645.291c0,3.275-2.658,5.918-5.927,5.918c-3.276,0-5.934-2.643-5.934-5.918
			c0-3.277,2.658-5.934,5.934-5.934C198.391,639.357,201.049,642.014,201.049,645.291"/>
		<path fill="#005292" d="M334.193,566.941h9.069v-24.268H335.4v-6.318c4.594-0.861,7.573-2.006,10.555-3.832h7.526v34.418h7.689
			v8.264h-26.978V566.941z"/>
		<path fill="#005292" d="M374.345,564.818c1.438,1.545,4.068,2.916,6.537,2.916c4.367,0,7.812-3.088,8.2-12.439
			c-2.058,2.742-5.676,4.303-8.141,4.303c-7.173,0-12.512-4.24-12.512-13.428c0-9.069,6.432-14.463,14.063-14.463
			c8.086,0,15.94,6.139,15.94,21.635c0,15.49-8.138,22.662-16.861,22.662c-5.738,0-9.877-2.414-12.566-5.107L374.345,564.818z
			 M388.917,548.404c-0.862-7.047-3.559-9.063-6.2-9.063c-2.689,0-4.994,1.896-4.994,6.828c0,4.594,2.305,6.256,5.174,6.256
			C384.955,552.426,387.255,551.336,388.917,548.404"/>
		<path fill="#005292" d="M421.566,541.012h-18.362v-8.488h29.266v6.184c-9.873,11.766-10.903,19.801-11.66,36.502h-10.261
			C411.353,561.15,413.528,552.135,421.566,541.012"/>
		<path fill="#005292" d="M438.828,566.941h9.065v-24.268h-7.863v-6.318c4.595-0.861,7.585-2.006,10.563-3.832h7.514v34.418h7.698
			v8.264h-26.978V566.941z"/>
		<rect x="389.262" y="308.452" fill="#004C98" width="24.423" height="91.897"/>
		<polygon fill="#004C98" points="519.788,308.452 519.788,327.598 550.518,327.598 550.518,400.346 574.936,400.346 
			574.936,327.598 605.657,327.598 605.657,308.452 		"/>
		<path fill="#004C98" d="M485.771,344.827h-20.404c-5.416,0-9.829-2.241-9.829-8.614c0-6.389,4.413-8.615,9.829-8.615h43.883
			v-19.146h-46.783c-17.469,0-31.63,10.085-31.63,27.761s14.161,27.757,31.63,27.757h20.997c5.428,0,9.813,2.242,9.813,8.631
			c0,6.372-4.386,8.606-9.813,8.606h-49.236v19.143h51.544c17.478,0,31.627-10.065,31.627-27.749
			C517.397,354.939,503.248,344.827,485.771,344.827"/>
		<polygon fill="#004C98" points="314.901,308.452 280.363,391.139 247.436,354.406 288.61,308.452 260.711,308.452 
			221.696,352.078 221.696,308.452 197.267,308.452 197.267,400.346 221.696,400.346 221.696,356.727 260.711,400.346 
			301.34,400.346 329.31,331.047 349.621,381.991 317.336,381.991 325.002,400.346 382.113,400.346 343.726,308.452 		"/>
	</g>
	<path fill="#FFFFFF" d="M65.092,425.43l-0.402-8.857c-0.437-9.861,4.405-16.195,15.312-16.682
		c10.868-0.471,16.547,5.394,16.961,14.909l0.414,9.204L65.092,425.43z M91.805,415.771c-0.257-6.02-3.662-9.641-11.516-9.28
		c-7.894,0.345-10.692,4.226-10.426,10.253l0.088,1.999l21.945-0.964L91.805,415.771z"/>
	<path fill="#FFFFFF" d="M64.008,393.275l0.386-6.766l15.933-3.378c3.637-0.808,6.904-1.278,10.577-2.117l0.016-0.22
		c-3.565-1.207-6.752-2.132-10.271-3.331l-15.457-5.087l0.375-6.538l31.698,11.735l-0.433,7.674L64.008,393.275z"/>
</g>
</svg>
